<mxfile host="www.draw.io" modified="2020-02-09T10:10:44.364Z" agent="Mozilla/5.0 (Macintosh; Intel Mac OS X 10_15_2) AppleWebKit/537.36 (KHTML, like Gecko) Chrome/79.0.3945.130 Safari/537.36" etag="5gwAHQfOPUuaGIzBzFth" version="12.6.6" type="github" pages="4">
  <diagram id="Q4VnvSh6ajyP1y70Wybg" name="Gestion d&#39;achat">
    <mxGraphModel dx="786" dy="513" grid="1" gridSize="10" guides="1" tooltips="1" connect="1" arrows="1" fold="1" page="1" pageScale="1" pageWidth="827" pageHeight="1169" math="0" shadow="0">
      <root>
        <mxCell id="0"/>
        <mxCell id="1" parent="0"/>
        <mxCell id="QWDj1nxfprRpqqSH3ZDR-1" value="" style="whiteSpace=wrap;html=1;" parent="1" vertex="1">
          <mxGeometry x="68" y="250" width="700" height="780" as="geometry"/>
        </mxCell>
        <mxCell id="QWDj1nxfprRpqqSH3ZDR-2" value="&lt;h1 style=&quot;font-size: 33px&quot;&gt;Diagramme de cas d&#39;utilisation&lt;/h1&gt;&lt;p style=&quot;font-size: 17px&quot;&gt;Détaille&amp;nbsp;&lt;/p&gt;" style="text;html=1;strokeColor=none;fillColor=none;spacing=5;spacingTop=-20;whiteSpace=wrap;overflow=hidden;rounded=0;align=center;" parent="1" vertex="1">
          <mxGeometry x="190" y="40" width="410" height="150" as="geometry"/>
        </mxCell>
        <mxCell id="QWDj1nxfprRpqqSH3ZDR-3" value="" style="rounded=1;whiteSpace=wrap;html=1;fillColor=#dae8fc;strokeColor=#6c8ebf;" parent="1" vertex="1">
          <mxGeometry x="270" y="310" width="320" height="655" as="geometry"/>
        </mxCell>
        <mxCell id="QWDj1nxfprRpqqSH3ZDR-4" value="Application&amp;nbsp;" style="text;html=1;strokeColor=none;fillColor=none;align=center;verticalAlign=middle;whiteSpace=wrap;rounded=0;fontSize=18;fontStyle=1;glass=0;gradientColor=none;" parent="1" vertex="1">
          <mxGeometry x="343" y="300" width="160" height="60" as="geometry"/>
        </mxCell>
        <mxCell id="QWDj1nxfprRpqqSH3ZDR-5" value="Visiteur" style="shape=umlActor;verticalLabelPosition=bottom;labelBackgroundColor=#ffffff;verticalAlign=top;html=1;outlineConnect=0;fontSize=18;fillColor=#FF8000;" parent="1" vertex="1">
          <mxGeometry x="168" y="370" width="30" height="60" as="geometry"/>
        </mxCell>
        <mxCell id="QWDj1nxfprRpqqSH3ZDR-6" value="Client" style="shape=umlActor;verticalLabelPosition=bottom;labelBackgroundColor=#ffffff;verticalAlign=top;html=1;outlineConnect=0;fontSize=18;fillColor=#FF8000;" parent="1" vertex="1">
          <mxGeometry x="168" y="500" width="30" height="60" as="geometry"/>
        </mxCell>
        <mxCell id="QWDj1nxfprRpqqSH3ZDR-9" value="Manageur" style="shape=umlActor;verticalLabelPosition=bottom;labelBackgroundColor=#ffffff;verticalAlign=top;html=1;outlineConnect=0;fontSize=18;fillColor=#FF8000;" parent="1" vertex="1">
          <mxGeometry x="168" y="680" width="30" height="60" as="geometry"/>
        </mxCell>
        <mxCell id="QWDj1nxfprRpqqSH3ZDR-30" value="&amp;lt;&amp;lt;&amp;lt; Système&amp;gt;&amp;gt;&amp;gt;&lt;br&gt;Système bancaire" style="shape=umlActor;verticalLabelPosition=bottom;labelBackgroundColor=#ffffff;verticalAlign=top;html=1;outlineConnect=0;fontSize=18;gradientColor=none;gradientDirection=north;fillColor=#FF8000;" parent="1" vertex="1">
          <mxGeometry x="658" y="470" width="30" height="60" as="geometry"/>
        </mxCell>
        <mxCell id="QWDj1nxfprRpqqSH3ZDR-31" value="&amp;lt;&amp;lt;&amp;lt; Système&amp;gt;&amp;gt;&amp;gt;&lt;br&gt;Comptabilité" style="shape=umlActor;verticalLabelPosition=bottom;labelBackgroundColor=#ffffff;verticalAlign=top;html=1;outlineConnect=0;fontSize=18;gradientColor=none;gradientDirection=north;fillColor=#FF8000;" parent="1" vertex="1">
          <mxGeometry x="658" y="660" width="30" height="60" as="geometry"/>
        </mxCell>
        <mxCell id="QWDj1nxfprRpqqSH3ZDR-36" value="Acteurs Principaux" style="text;html=1;strokeColor=none;fillColor=none;align=center;verticalAlign=middle;whiteSpace=wrap;rounded=0;glass=0;fontSize=18;fontStyle=5" parent="1" vertex="1">
          <mxGeometry x="58" y="280" width="250" height="20" as="geometry"/>
        </mxCell>
        <mxCell id="QWDj1nxfprRpqqSH3ZDR-37" value="Acteurs secondaires" style="text;html=1;strokeColor=none;fillColor=none;align=center;verticalAlign=middle;whiteSpace=wrap;rounded=0;glass=0;fontSize=18;fontStyle=5" parent="1" vertex="1">
          <mxGeometry x="540" y="280" width="250" height="20" as="geometry"/>
        </mxCell>
        <mxCell id="QWDj1nxfprRpqqSH3ZDR-38" value="" style="shape=flexArrow;endArrow=classic;html=1;strokeColor=#000000;fontSize=18;fillColor=#000000;" parent="1" edge="1">
          <mxGeometry width="50" height="50" relative="1" as="geometry">
            <mxPoint x="182.17" y="310" as="sourcePoint"/>
            <mxPoint x="182" y="340" as="targetPoint"/>
          </mxGeometry>
        </mxCell>
        <mxCell id="QWDj1nxfprRpqqSH3ZDR-40" value="" style="shape=flexArrow;endArrow=classic;html=1;strokeColor=#000000;fontSize=18;fillColor=#000000;" parent="1" edge="1">
          <mxGeometry width="50" height="50" relative="1" as="geometry">
            <mxPoint x="672.3400000000001" y="310" as="sourcePoint"/>
            <mxPoint x="672.1700000000001" y="340" as="targetPoint"/>
          </mxGeometry>
        </mxCell>
        <mxCell id="bGvTpOcmgWzEgEp-N8Zq-1" value="" style="shape=folder;fontStyle=1;spacingTop=10;tabWidth=40;tabHeight=14;tabPosition=left;html=1;fillColor=#fff2cc;strokeColor=#d6b656;" parent="1" vertex="1">
          <mxGeometry x="314" y="340" width="236" height="600" as="geometry"/>
        </mxCell>
        <mxCell id="gy7lW3POpjNdomU-dFTI-1" value="" style="endArrow=none;html=1;entryX=0;entryY=0.5;entryDx=0;entryDy=0;" parent="1" source="QWDj1nxfprRpqqSH3ZDR-5" target="vUm-j6URE58z15l5uwDP-5" edge="1">
          <mxGeometry width="50" height="50" relative="1" as="geometry">
            <mxPoint x="208" y="430" as="sourcePoint"/>
            <mxPoint x="108" y="1050" as="targetPoint"/>
          </mxGeometry>
        </mxCell>
        <mxCell id="vUm-j6URE58z15l5uwDP-2" value="Gestion d&#39;achat" style="text;html=1;strokeColor=none;fillColor=none;align=center;verticalAlign=middle;whiteSpace=wrap;rounded=0;" parent="1" vertex="1">
          <mxGeometry x="382" y="362" width="100" height="20" as="geometry"/>
        </mxCell>
        <mxCell id="vUm-j6URE58z15l5uwDP-5" value="" style="ellipse;whiteSpace=wrap;html=1;fillColor=#d5e8d4;strokeColor=#82b366;" parent="1" vertex="1">
          <mxGeometry x="340" y="400" width="190" height="50" as="geometry"/>
        </mxCell>
        <mxCell id="vUm-j6URE58z15l5uwDP-6" value="Consulter la catalogue produit" style="text;html=1;strokeColor=none;fillColor=none;align=center;verticalAlign=middle;whiteSpace=wrap;rounded=0;" parent="1" vertex="1">
          <mxGeometry x="330" y="415" width="210" height="20" as="geometry"/>
        </mxCell>
        <mxCell id="I_hh46oAvjUN_I0hhad0-1" value="" style="ellipse;whiteSpace=wrap;html=1;fillColor=#d5e8d4;strokeColor=#82b366;" vertex="1" parent="1">
          <mxGeometry x="337" y="660" width="190" height="50" as="geometry"/>
        </mxCell>
        <mxCell id="I_hh46oAvjUN_I0hhad0-2" value="Enregistrement d&#39;achat" style="text;html=1;strokeColor=none;fillColor=none;align=center;verticalAlign=middle;whiteSpace=wrap;rounded=0;" vertex="1" parent="1">
          <mxGeometry x="325" y="675" width="210" height="20" as="geometry"/>
        </mxCell>
        <mxCell id="I_hh46oAvjUN_I0hhad0-3" value="" style="endArrow=none;html=1;" edge="1" parent="1" target="vUm-j6URE58z15l5uwDP-5">
          <mxGeometry width="50" height="50" relative="1" as="geometry">
            <mxPoint x="201" y="536.2101910828026" as="sourcePoint"/>
            <mxPoint x="343" y="595" as="targetPoint"/>
          </mxGeometry>
        </mxCell>
        <mxCell id="I_hh46oAvjUN_I0hhad0-4" value="" style="endArrow=none;html=1;entryX=0;entryY=0.5;entryDx=0;entryDy=0;exitX=1;exitY=0;exitDx=0;exitDy=0;" edge="1" parent="1" source="I_hh46oAvjUN_I0hhad0-1">
          <mxGeometry width="50" height="50" relative="1" as="geometry">
            <mxPoint x="503" y="455.0001910828026" as="sourcePoint"/>
            <mxPoint x="645" y="513.79" as="targetPoint"/>
          </mxGeometry>
        </mxCell>
        <mxCell id="I_hh46oAvjUN_I0hhad0-5" value="" style="endArrow=none;html=1;entryX=0;entryY=0;entryDx=0;entryDy=0;" edge="1" parent="1" target="I_hh46oAvjUN_I0hhad0-1">
          <mxGeometry width="50" height="50" relative="1" as="geometry">
            <mxPoint x="210" y="560" as="sourcePoint"/>
            <mxPoint x="382.7552727781549" y="493.88622065278196" as="targetPoint"/>
          </mxGeometry>
        </mxCell>
        <mxCell id="I_hh46oAvjUN_I0hhad0-6" value="" style="ellipse;whiteSpace=wrap;html=1;fillColor=#d5e8d4;strokeColor=#82b366;" vertex="1" parent="1">
          <mxGeometry x="337" y="840" width="190" height="50" as="geometry"/>
        </mxCell>
        <mxCell id="I_hh46oAvjUN_I0hhad0-7" value="Gestion de la catalogue" style="text;html=1;strokeColor=none;fillColor=none;align=center;verticalAlign=middle;whiteSpace=wrap;rounded=0;" vertex="1" parent="1">
          <mxGeometry x="330" y="855" width="210" height="20" as="geometry"/>
        </mxCell>
        <mxCell id="I_hh46oAvjUN_I0hhad0-8" value="" style="endArrow=none;html=1;entryX=0;entryY=0;entryDx=0;entryDy=0;" edge="1" parent="1" target="I_hh46oAvjUN_I0hhad0-6">
          <mxGeometry width="50" height="50" relative="1" as="geometry">
            <mxPoint x="200" y="710" as="sourcePoint"/>
            <mxPoint x="337.004855787278" y="737.3223304703363" as="targetPoint"/>
          </mxGeometry>
        </mxCell>
        <mxCell id="I_hh46oAvjUN_I0hhad0-9" value="" style="endArrow=none;html=1;exitX=1;exitY=1;exitDx=0;exitDy=0;" edge="1" parent="1" source="I_hh46oAvjUN_I0hhad0-1">
          <mxGeometry width="50" height="50" relative="1" as="geometry">
            <mxPoint x="509.175144212722" y="597.3223304703365" as="sourcePoint"/>
            <mxPoint x="640" y="700" as="targetPoint"/>
          </mxGeometry>
        </mxCell>
        <mxCell id="r3toIV_oCMHo1dfmNF1c-1" value="" style="ellipse;whiteSpace=wrap;html=1;fillColor=#d5e8d4;strokeColor=#82b366;" vertex="1" parent="1">
          <mxGeometry x="337" y="570" width="190" height="50" as="geometry"/>
        </mxCell>
        <mxCell id="r3toIV_oCMHo1dfmNF1c-2" value="Mode de livraison" style="text;html=1;strokeColor=none;fillColor=none;align=center;verticalAlign=middle;whiteSpace=wrap;rounded=0;" vertex="1" parent="1">
          <mxGeometry x="327" y="585" width="210" height="20" as="geometry"/>
        </mxCell>
        <mxCell id="r3toIV_oCMHo1dfmNF1c-3" value="" style="endArrow=none;html=1;entryX=0;entryY=1;entryDx=0;entryDy=0;" edge="1" parent="1" target="43fGHOJcIuJRuDEXYhk--1">
          <mxGeometry width="50" height="50" relative="1" as="geometry">
            <mxPoint x="208" y="544.7101910828026" as="sourcePoint"/>
            <mxPoint x="337" y="544.5" as="targetPoint"/>
            <Array as="points">
              <mxPoint x="217" y="544.5"/>
            </Array>
          </mxGeometry>
        </mxCell>
        <mxCell id="r3toIV_oCMHo1dfmNF1c-4" value="" style="ellipse;whiteSpace=wrap;html=1;fillColor=#d5e8d4;strokeColor=#82b366;" vertex="1" parent="1">
          <mxGeometry x="339" y="750" width="190" height="50" as="geometry"/>
        </mxCell>
        <mxCell id="r3toIV_oCMHo1dfmNF1c-5" value="Désistement de commande" style="text;html=1;strokeColor=none;fillColor=none;align=center;verticalAlign=middle;whiteSpace=wrap;rounded=0;" vertex="1" parent="1">
          <mxGeometry x="327" y="765" width="210" height="20" as="geometry"/>
        </mxCell>
        <mxCell id="r3toIV_oCMHo1dfmNF1c-6" value="" style="endArrow=none;html=1;entryX=0;entryY=0;entryDx=0;entryDy=0;" edge="1" parent="1" target="r3toIV_oCMHo1dfmNF1c-4">
          <mxGeometry width="50" height="50" relative="1" as="geometry">
            <mxPoint x="220" y="580" as="sourcePoint"/>
            <mxPoint x="374.824855787278" y="627.3223304703363" as="targetPoint"/>
          </mxGeometry>
        </mxCell>
        <mxCell id="43fGHOJcIuJRuDEXYhk--1" value="" style="ellipse;whiteSpace=wrap;html=1;fillColor=#d5e8d4;strokeColor=#82b366;" vertex="1" parent="1">
          <mxGeometry x="337" y="490" width="190" height="50" as="geometry"/>
        </mxCell>
        <mxCell id="43fGHOJcIuJRuDEXYhk--2" value="Personnalisation d&#39;un produit&amp;nbsp;" style="text;html=1;strokeColor=none;fillColor=none;align=center;verticalAlign=middle;whiteSpace=wrap;rounded=0;" vertex="1" parent="1">
          <mxGeometry x="327" y="505" width="210" height="20" as="geometry"/>
        </mxCell>
        <mxCell id="43fGHOJcIuJRuDEXYhk--3" value="" style="endArrow=none;html=1;entryX=0;entryY=0.5;entryDx=0;entryDy=0;" edge="1" parent="1" target="r3toIV_oCMHo1dfmNF1c-1">
          <mxGeometry width="50" height="50" relative="1" as="geometry">
            <mxPoint x="218" y="554.7101910828026" as="sourcePoint"/>
            <mxPoint x="347" y="595" as="targetPoint"/>
            <Array as="points">
              <mxPoint x="227" y="554.5"/>
            </Array>
          </mxGeometry>
        </mxCell>
      </root>
    </mxGraphModel>
  </diagram>
  <diagram name="Gestion de production" id="fgTAtfgwFq6CUhq8dnCs">
    <mxGraphModel dx="786" dy="513" grid="1" gridSize="10" guides="1" tooltips="1" connect="1" arrows="1" fold="1" page="1" pageScale="1" pageWidth="827" pageHeight="1169" math="0" shadow="0">
      <root>
        <mxCell id="d8JkluKaq2D7Z7kEgQlh-0"/>
        <mxCell id="d8JkluKaq2D7Z7kEgQlh-1" parent="d8JkluKaq2D7Z7kEgQlh-0"/>
        <mxCell id="d8JkluKaq2D7Z7kEgQlh-2" value="" style="whiteSpace=wrap;html=1;" vertex="1" parent="d8JkluKaq2D7Z7kEgQlh-1">
          <mxGeometry x="68" y="250" width="700" height="780" as="geometry"/>
        </mxCell>
        <mxCell id="d8JkluKaq2D7Z7kEgQlh-3" value="&lt;h1 style=&quot;font-size: 33px&quot;&gt;Diagramme de cas d&#39;utilisation&lt;/h1&gt;&lt;p style=&quot;font-size: 17px&quot;&gt;--------------------------------------------------------&amp;nbsp;&lt;/p&gt;" style="text;html=1;strokeColor=none;fillColor=none;spacing=5;spacingTop=-20;whiteSpace=wrap;overflow=hidden;rounded=0;align=center;" vertex="1" parent="d8JkluKaq2D7Z7kEgQlh-1">
          <mxGeometry x="190" y="40" width="410" height="150" as="geometry"/>
        </mxCell>
        <mxCell id="d8JkluKaq2D7Z7kEgQlh-4" value="" style="rounded=1;whiteSpace=wrap;html=1;fillColor=#dae8fc;strokeColor=#6c8ebf;" vertex="1" parent="d8JkluKaq2D7Z7kEgQlh-1">
          <mxGeometry x="270" y="310" width="320" height="655" as="geometry"/>
        </mxCell>
        <mxCell id="d8JkluKaq2D7Z7kEgQlh-5" value="Application&amp;nbsp;" style="text;html=1;strokeColor=none;fillColor=none;align=center;verticalAlign=middle;whiteSpace=wrap;rounded=0;fontSize=18;fontStyle=1;glass=0;gradientColor=none;" vertex="1" parent="d8JkluKaq2D7Z7kEgQlh-1">
          <mxGeometry x="343" y="300" width="160" height="60" as="geometry"/>
        </mxCell>
        <mxCell id="d8JkluKaq2D7Z7kEgQlh-6" value="Pizzaiolo" style="shape=umlActor;verticalLabelPosition=bottom;labelBackgroundColor=#ffffff;verticalAlign=top;html=1;outlineConnect=0;fontSize=18;fillColor=#FF8000;" vertex="1" parent="d8JkluKaq2D7Z7kEgQlh-1">
          <mxGeometry x="168" y="370" width="30" height="60" as="geometry"/>
        </mxCell>
        <mxCell id="d8JkluKaq2D7Z7kEgQlh-7" value="Manageur" style="shape=umlActor;verticalLabelPosition=bottom;labelBackgroundColor=#ffffff;verticalAlign=top;html=1;outlineConnect=0;fontSize=18;fillColor=#FF8000;" vertex="1" parent="d8JkluKaq2D7Z7kEgQlh-1">
          <mxGeometry x="168" y="500" width="30" height="60" as="geometry"/>
        </mxCell>
        <mxCell id="d8JkluKaq2D7Z7kEgQlh-11" value="Acteurs Principaux" style="text;html=1;strokeColor=none;fillColor=none;align=center;verticalAlign=middle;whiteSpace=wrap;rounded=0;glass=0;fontSize=18;fontStyle=5" vertex="1" parent="d8JkluKaq2D7Z7kEgQlh-1">
          <mxGeometry x="58" y="280" width="250" height="20" as="geometry"/>
        </mxCell>
        <mxCell id="d8JkluKaq2D7Z7kEgQlh-12" value="Acteurs secondaires" style="text;html=1;strokeColor=none;fillColor=none;align=center;verticalAlign=middle;whiteSpace=wrap;rounded=0;glass=0;fontSize=18;fontStyle=5" vertex="1" parent="d8JkluKaq2D7Z7kEgQlh-1">
          <mxGeometry x="540" y="280" width="250" height="20" as="geometry"/>
        </mxCell>
        <mxCell id="d8JkluKaq2D7Z7kEgQlh-13" value="" style="shape=flexArrow;endArrow=classic;html=1;strokeColor=#000000;fontSize=18;fillColor=#000000;" edge="1" parent="d8JkluKaq2D7Z7kEgQlh-1">
          <mxGeometry width="50" height="50" relative="1" as="geometry">
            <mxPoint x="182.17" y="310" as="sourcePoint"/>
            <mxPoint x="182" y="340" as="targetPoint"/>
          </mxGeometry>
        </mxCell>
        <mxCell id="d8JkluKaq2D7Z7kEgQlh-14" value="" style="shape=flexArrow;endArrow=classic;html=1;strokeColor=#000000;fontSize=18;fillColor=#000000;" edge="1" parent="d8JkluKaq2D7Z7kEgQlh-1">
          <mxGeometry width="50" height="50" relative="1" as="geometry">
            <mxPoint x="672.3400000000001" y="310" as="sourcePoint"/>
            <mxPoint x="672.1700000000001" y="340" as="targetPoint"/>
          </mxGeometry>
        </mxCell>
        <mxCell id="d8JkluKaq2D7Z7kEgQlh-15" value="" style="shape=folder;fontStyle=1;spacingTop=10;tabWidth=40;tabHeight=14;tabPosition=left;html=1;fillColor=#fff2cc;strokeColor=#d6b656;" vertex="1" parent="d8JkluKaq2D7Z7kEgQlh-1">
          <mxGeometry x="314" y="340" width="236" height="600" as="geometry"/>
        </mxCell>
        <mxCell id="d8JkluKaq2D7Z7kEgQlh-16" value="" style="endArrow=none;html=1;entryX=0;entryY=0.5;entryDx=0;entryDy=0;" edge="1" parent="d8JkluKaq2D7Z7kEgQlh-1" source="d8JkluKaq2D7Z7kEgQlh-6" target="d8JkluKaq2D7Z7kEgQlh-18">
          <mxGeometry width="50" height="50" relative="1" as="geometry">
            <mxPoint x="208" y="430" as="sourcePoint"/>
            <mxPoint x="108" y="1050" as="targetPoint"/>
          </mxGeometry>
        </mxCell>
        <mxCell id="d8JkluKaq2D7Z7kEgQlh-17" value="Gestion de production" style="text;html=1;strokeColor=none;fillColor=none;align=center;verticalAlign=middle;whiteSpace=wrap;rounded=0;" vertex="1" parent="d8JkluKaq2D7Z7kEgQlh-1">
          <mxGeometry x="371" y="360" width="128" height="20" as="geometry"/>
        </mxCell>
        <mxCell id="d8JkluKaq2D7Z7kEgQlh-18" value="" style="ellipse;whiteSpace=wrap;html=1;fillColor=#d5e8d4;strokeColor=#82b366;" vertex="1" parent="d8JkluKaq2D7Z7kEgQlh-1">
          <mxGeometry x="340" y="440" width="190" height="50" as="geometry"/>
        </mxCell>
        <mxCell id="d8JkluKaq2D7Z7kEgQlh-19" value="Rappel d&#39;ingrédients" style="text;html=1;strokeColor=none;fillColor=none;align=center;verticalAlign=middle;whiteSpace=wrap;rounded=0;" vertex="1" parent="d8JkluKaq2D7Z7kEgQlh-1">
          <mxGeometry x="330" y="455" width="210" height="20" as="geometry"/>
        </mxCell>
        <mxCell id="d8JkluKaq2D7Z7kEgQlh-20" value="" style="ellipse;whiteSpace=wrap;html=1;fillColor=#d5e8d4;strokeColor=#82b366;" vertex="1" parent="d8JkluKaq2D7Z7kEgQlh-1">
          <mxGeometry x="337" y="580" width="190" height="50" as="geometry"/>
        </mxCell>
        <mxCell id="d8JkluKaq2D7Z7kEgQlh-21" value="Changement de statut&lt;br&gt;&quot;En préparation&quot;" style="text;html=1;strokeColor=none;fillColor=none;align=center;verticalAlign=middle;whiteSpace=wrap;rounded=0;" vertex="1" parent="d8JkluKaq2D7Z7kEgQlh-1">
          <mxGeometry x="330" y="595" width="210" height="20" as="geometry"/>
        </mxCell>
        <mxCell id="EaD-doI5XmKmRAlk7yoj-0" value="Gestion de production" style="text;html=1;strokeColor=none;fillColor=none;align=center;verticalAlign=middle;whiteSpace=wrap;rounded=0;fontSize=24;" vertex="1" parent="d8JkluKaq2D7Z7kEgQlh-1">
          <mxGeometry x="240.5" y="190" width="309" height="20" as="geometry"/>
        </mxCell>
        <mxCell id="EaD-doI5XmKmRAlk7yoj-3" value="" style="endArrow=none;html=1;entryX=0;entryY=0;entryDx=0;entryDy=0;" edge="1" parent="d8JkluKaq2D7Z7kEgQlh-1" target="d8JkluKaq2D7Z7kEgQlh-20">
          <mxGeometry width="50" height="50" relative="1" as="geometry">
            <mxPoint x="220" y="430" as="sourcePoint"/>
            <mxPoint x="350" y="475" as="targetPoint"/>
          </mxGeometry>
        </mxCell>
        <mxCell id="EaD-doI5XmKmRAlk7yoj-10" value="" style="ellipse;whiteSpace=wrap;html=1;fillColor=#d5e8d4;strokeColor=#82b366;" vertex="1" parent="d8JkluKaq2D7Z7kEgQlh-1">
          <mxGeometry x="335" y="720" width="190" height="50" as="geometry"/>
        </mxCell>
      </root>
    </mxGraphModel>
  </diagram>
  <diagram name="Gestion de livraison" id="UV4tbAQiBesQI6crcTb9">
    <mxGraphModel dx="786" dy="513" grid="1" gridSize="10" guides="1" tooltips="1" connect="1" arrows="1" fold="1" page="1" pageScale="1" pageWidth="827" pageHeight="1169" math="0" shadow="0">
      <root>
        <mxCell id="ykpp0NAtl0xC6Hz3AZJ0-0"/>
        <mxCell id="ykpp0NAtl0xC6Hz3AZJ0-1" parent="ykpp0NAtl0xC6Hz3AZJ0-0"/>
        <mxCell id="ykpp0NAtl0xC6Hz3AZJ0-2" value="" style="whiteSpace=wrap;html=1;" vertex="1" parent="ykpp0NAtl0xC6Hz3AZJ0-1">
          <mxGeometry x="68" y="250" width="700" height="780" as="geometry"/>
        </mxCell>
        <mxCell id="ykpp0NAtl0xC6Hz3AZJ0-3" value="&lt;h1 style=&quot;font-size: 33px&quot;&gt;Diagramme de cas d&#39;utilisation&lt;/h1&gt;&lt;p style=&quot;font-size: 17px&quot;&gt;--------------------------------------------------------&amp;nbsp;&lt;/p&gt;" style="text;html=1;strokeColor=none;fillColor=none;spacing=5;spacingTop=-20;whiteSpace=wrap;overflow=hidden;rounded=0;align=center;" vertex="1" parent="ykpp0NAtl0xC6Hz3AZJ0-1">
          <mxGeometry x="190" y="40" width="410" height="150" as="geometry"/>
        </mxCell>
        <mxCell id="ykpp0NAtl0xC6Hz3AZJ0-4" value="" style="rounded=1;whiteSpace=wrap;html=1;fillColor=#dae8fc;strokeColor=#6c8ebf;" vertex="1" parent="ykpp0NAtl0xC6Hz3AZJ0-1">
          <mxGeometry x="270" y="310" width="320" height="655" as="geometry"/>
        </mxCell>
        <mxCell id="ykpp0NAtl0xC6Hz3AZJ0-5" value="Application&amp;nbsp;" style="text;html=1;strokeColor=none;fillColor=none;align=center;verticalAlign=middle;whiteSpace=wrap;rounded=0;fontSize=18;fontStyle=1;glass=0;gradientColor=none;" vertex="1" parent="ykpp0NAtl0xC6Hz3AZJ0-1">
          <mxGeometry x="343" y="300" width="160" height="60" as="geometry"/>
        </mxCell>
        <mxCell id="ykpp0NAtl0xC6Hz3AZJ0-6" value="Pizzaiolo" style="shape=umlActor;verticalLabelPosition=bottom;labelBackgroundColor=#ffffff;verticalAlign=top;html=1;outlineConnect=0;fontSize=18;fillColor=#FF8000;" vertex="1" parent="ykpp0NAtl0xC6Hz3AZJ0-1">
          <mxGeometry x="168" y="370" width="30" height="60" as="geometry"/>
        </mxCell>
        <mxCell id="ykpp0NAtl0xC6Hz3AZJ0-7" value="Manageur" style="shape=umlActor;verticalLabelPosition=bottom;labelBackgroundColor=#ffffff;verticalAlign=top;html=1;outlineConnect=0;fontSize=18;fillColor=#FF8000;" vertex="1" parent="ykpp0NAtl0xC6Hz3AZJ0-1">
          <mxGeometry x="168" y="500" width="30" height="60" as="geometry"/>
        </mxCell>
        <mxCell id="ykpp0NAtl0xC6Hz3AZJ0-8" value="Acteurs Principaux" style="text;html=1;strokeColor=none;fillColor=none;align=center;verticalAlign=middle;whiteSpace=wrap;rounded=0;glass=0;fontSize=18;fontStyle=5" vertex="1" parent="ykpp0NAtl0xC6Hz3AZJ0-1">
          <mxGeometry x="58" y="280" width="250" height="20" as="geometry"/>
        </mxCell>
        <mxCell id="ykpp0NAtl0xC6Hz3AZJ0-9" value="Acteurs secondaires" style="text;html=1;strokeColor=none;fillColor=none;align=center;verticalAlign=middle;whiteSpace=wrap;rounded=0;glass=0;fontSize=18;fontStyle=5" vertex="1" parent="ykpp0NAtl0xC6Hz3AZJ0-1">
          <mxGeometry x="540" y="280" width="250" height="20" as="geometry"/>
        </mxCell>
        <mxCell id="ykpp0NAtl0xC6Hz3AZJ0-10" value="" style="shape=flexArrow;endArrow=classic;html=1;strokeColor=#000000;fontSize=18;fillColor=#000000;" edge="1" parent="ykpp0NAtl0xC6Hz3AZJ0-1">
          <mxGeometry width="50" height="50" relative="1" as="geometry">
            <mxPoint x="182.17" y="310" as="sourcePoint"/>
            <mxPoint x="182" y="340" as="targetPoint"/>
          </mxGeometry>
        </mxCell>
        <mxCell id="ykpp0NAtl0xC6Hz3AZJ0-11" value="" style="shape=flexArrow;endArrow=classic;html=1;strokeColor=#000000;fontSize=18;fillColor=#000000;" edge="1" parent="ykpp0NAtl0xC6Hz3AZJ0-1">
          <mxGeometry width="50" height="50" relative="1" as="geometry">
            <mxPoint x="672.3400000000001" y="310" as="sourcePoint"/>
            <mxPoint x="672.1700000000001" y="340" as="targetPoint"/>
          </mxGeometry>
        </mxCell>
        <mxCell id="ykpp0NAtl0xC6Hz3AZJ0-12" value="" style="shape=folder;fontStyle=1;spacingTop=10;tabWidth=40;tabHeight=14;tabPosition=left;html=1;fillColor=#fff2cc;strokeColor=#d6b656;" vertex="1" parent="ykpp0NAtl0xC6Hz3AZJ0-1">
          <mxGeometry x="314" y="340" width="236" height="600" as="geometry"/>
        </mxCell>
        <mxCell id="ykpp0NAtl0xC6Hz3AZJ0-13" value="" style="endArrow=none;html=1;entryX=0;entryY=0.5;entryDx=0;entryDy=0;" edge="1" parent="ykpp0NAtl0xC6Hz3AZJ0-1" source="ykpp0NAtl0xC6Hz3AZJ0-6" target="ykpp0NAtl0xC6Hz3AZJ0-15">
          <mxGeometry width="50" height="50" relative="1" as="geometry">
            <mxPoint x="208" y="430" as="sourcePoint"/>
            <mxPoint x="108" y="1050" as="targetPoint"/>
          </mxGeometry>
        </mxCell>
        <mxCell id="ykpp0NAtl0xC6Hz3AZJ0-14" value="Gestion de production" style="text;html=1;strokeColor=none;fillColor=none;align=center;verticalAlign=middle;whiteSpace=wrap;rounded=0;" vertex="1" parent="ykpp0NAtl0xC6Hz3AZJ0-1">
          <mxGeometry x="371" y="360" width="128" height="20" as="geometry"/>
        </mxCell>
        <mxCell id="ykpp0NAtl0xC6Hz3AZJ0-15" value="" style="ellipse;whiteSpace=wrap;html=1;fillColor=#d5e8d4;strokeColor=#82b366;" vertex="1" parent="ykpp0NAtl0xC6Hz3AZJ0-1">
          <mxGeometry x="340" y="440" width="190" height="50" as="geometry"/>
        </mxCell>
        <mxCell id="ykpp0NAtl0xC6Hz3AZJ0-16" value="Rappel d&#39;ingrédients" style="text;html=1;strokeColor=none;fillColor=none;align=center;verticalAlign=middle;whiteSpace=wrap;rounded=0;" vertex="1" parent="ykpp0NAtl0xC6Hz3AZJ0-1">
          <mxGeometry x="330" y="455" width="210" height="20" as="geometry"/>
        </mxCell>
        <mxCell id="ykpp0NAtl0xC6Hz3AZJ0-17" value="" style="ellipse;whiteSpace=wrap;html=1;fillColor=#d5e8d4;strokeColor=#82b366;" vertex="1" parent="ykpp0NAtl0xC6Hz3AZJ0-1">
          <mxGeometry x="337" y="580" width="190" height="50" as="geometry"/>
        </mxCell>
        <mxCell id="ykpp0NAtl0xC6Hz3AZJ0-18" value="Changement de statut&lt;br&gt;&quot;En préparation&quot;" style="text;html=1;strokeColor=none;fillColor=none;align=center;verticalAlign=middle;whiteSpace=wrap;rounded=0;" vertex="1" parent="ykpp0NAtl0xC6Hz3AZJ0-1">
          <mxGeometry x="330" y="595" width="210" height="20" as="geometry"/>
        </mxCell>
        <mxCell id="ykpp0NAtl0xC6Hz3AZJ0-19" value="Gestion de production" style="text;html=1;strokeColor=none;fillColor=none;align=center;verticalAlign=middle;whiteSpace=wrap;rounded=0;fontSize=24;" vertex="1" parent="ykpp0NAtl0xC6Hz3AZJ0-1">
          <mxGeometry x="240.5" y="190" width="309" height="20" as="geometry"/>
        </mxCell>
        <mxCell id="ykpp0NAtl0xC6Hz3AZJ0-20" value="" style="endArrow=none;html=1;entryX=0;entryY=0;entryDx=0;entryDy=0;" edge="1" parent="ykpp0NAtl0xC6Hz3AZJ0-1" target="ykpp0NAtl0xC6Hz3AZJ0-17">
          <mxGeometry width="50" height="50" relative="1" as="geometry">
            <mxPoint x="220" y="430" as="sourcePoint"/>
            <mxPoint x="350" y="475" as="targetPoint"/>
          </mxGeometry>
        </mxCell>
        <mxCell id="ykpp0NAtl0xC6Hz3AZJ0-21" value="" style="ellipse;whiteSpace=wrap;html=1;fillColor=#d5e8d4;strokeColor=#82b366;" vertex="1" parent="ykpp0NAtl0xC6Hz3AZJ0-1">
          <mxGeometry x="335" y="720" width="190" height="50" as="geometry"/>
        </mxCell>
      </root>
    </mxGraphModel>
  </diagram>
  <diagram name="Copy of Page-1" id="2xjQvNwTvrhr-YecKvF7">
    <mxGraphModel dx="786" dy="513" grid="1" gridSize="10" guides="1" tooltips="1" connect="1" arrows="1" fold="1" page="1" pageScale="1" pageWidth="827" pageHeight="1169" math="0" shadow="0">
      <root>
        <mxCell id="-Z5jI8GCRbAPNZXGYlXl-0"/>
        <mxCell id="-Z5jI8GCRbAPNZXGYlXl-1" parent="-Z5jI8GCRbAPNZXGYlXl-0"/>
        <mxCell id="-Z5jI8GCRbAPNZXGYlXl-2" value="" style="whiteSpace=wrap;html=1;" parent="-Z5jI8GCRbAPNZXGYlXl-1" vertex="1">
          <mxGeometry x="68" y="250" width="700" height="780" as="geometry"/>
        </mxCell>
        <mxCell id="-Z5jI8GCRbAPNZXGYlXl-3" value="&lt;h1 style=&quot;font-size: 33px&quot;&gt;Diagramme de cas d&#39;utilisation&lt;/h1&gt;&lt;p style=&quot;font-size: 17px&quot;&gt;Détaille&amp;nbsp;&lt;/p&gt;" style="text;html=1;strokeColor=none;fillColor=none;spacing=5;spacingTop=-20;whiteSpace=wrap;overflow=hidden;rounded=0;align=center;" parent="-Z5jI8GCRbAPNZXGYlXl-1" vertex="1">
          <mxGeometry x="190" y="40" width="410" height="150" as="geometry"/>
        </mxCell>
        <mxCell id="-Z5jI8GCRbAPNZXGYlXl-4" value="" style="rounded=1;whiteSpace=wrap;html=1;fillColor=#dae8fc;strokeColor=#6c8ebf;" parent="-Z5jI8GCRbAPNZXGYlXl-1" vertex="1">
          <mxGeometry x="270" y="310" width="320" height="655" as="geometry"/>
        </mxCell>
        <mxCell id="-Z5jI8GCRbAPNZXGYlXl-5" value="Application&amp;nbsp;" style="text;html=1;strokeColor=none;fillColor=none;align=center;verticalAlign=middle;whiteSpace=wrap;rounded=0;fontSize=18;fontStyle=1;glass=0;gradientColor=none;" parent="-Z5jI8GCRbAPNZXGYlXl-1" vertex="1">
          <mxGeometry x="343" y="300" width="160" height="60" as="geometry"/>
        </mxCell>
        <mxCell id="-Z5jI8GCRbAPNZXGYlXl-6" value="Visiteur" style="shape=umlActor;verticalLabelPosition=bottom;labelBackgroundColor=#ffffff;verticalAlign=top;html=1;outlineConnect=0;fontSize=18;fillColor=#FF8000;" parent="-Z5jI8GCRbAPNZXGYlXl-1" vertex="1">
          <mxGeometry x="168" y="370" width="30" height="60" as="geometry"/>
        </mxCell>
        <mxCell id="-Z5jI8GCRbAPNZXGYlXl-7" value="Client" style="shape=umlActor;verticalLabelPosition=bottom;labelBackgroundColor=#ffffff;verticalAlign=top;html=1;outlineConnect=0;fontSize=18;fillColor=#FF8000;" parent="-Z5jI8GCRbAPNZXGYlXl-1" vertex="1">
          <mxGeometry x="168" y="500" width="30" height="60" as="geometry"/>
        </mxCell>
        <mxCell id="-Z5jI8GCRbAPNZXGYlXl-8" value="Pizzaiolo" style="shape=umlActor;verticalLabelPosition=bottom;labelBackgroundColor=#ffffff;verticalAlign=top;html=1;outlineConnect=0;fontSize=18;fillColor=#FF8000;" parent="-Z5jI8GCRbAPNZXGYlXl-1" vertex="1">
          <mxGeometry x="168" y="620" width="30" height="60" as="geometry"/>
        </mxCell>
        <mxCell id="-Z5jI8GCRbAPNZXGYlXl-9" value="Livreur" style="shape=umlActor;verticalLabelPosition=bottom;labelBackgroundColor=#ffffff;verticalAlign=top;html=1;outlineConnect=0;fontSize=18;fillColor=#FF8000;" parent="-Z5jI8GCRbAPNZXGYlXl-1" vertex="1">
          <mxGeometry x="168" y="730" width="30" height="60" as="geometry"/>
        </mxCell>
        <mxCell id="-Z5jI8GCRbAPNZXGYlXl-10" value="Manageur" style="shape=umlActor;verticalLabelPosition=bottom;labelBackgroundColor=#ffffff;verticalAlign=top;html=1;outlineConnect=0;fontSize=18;fillColor=#FF8000;" parent="-Z5jI8GCRbAPNZXGYlXl-1" vertex="1">
          <mxGeometry x="168" y="860" width="30" height="60" as="geometry"/>
        </mxCell>
        <mxCell id="-Z5jI8GCRbAPNZXGYlXl-11" value="&amp;lt;&amp;lt;&amp;lt; Système&amp;gt;&amp;gt;&amp;gt;&lt;br&gt;Système bancaire" style="shape=umlActor;verticalLabelPosition=bottom;labelBackgroundColor=#ffffff;verticalAlign=top;html=1;outlineConnect=0;fontSize=18;gradientColor=none;gradientDirection=north;fillColor=#FF8000;" parent="-Z5jI8GCRbAPNZXGYlXl-1" vertex="1">
          <mxGeometry x="658" y="470" width="30" height="60" as="geometry"/>
        </mxCell>
        <mxCell id="-Z5jI8GCRbAPNZXGYlXl-12" value="&amp;lt;&amp;lt;&amp;lt; Système&amp;gt;&amp;gt;&amp;gt;&lt;br&gt;Comptabilité" style="shape=umlActor;verticalLabelPosition=bottom;labelBackgroundColor=#ffffff;verticalAlign=top;html=1;outlineConnect=0;fontSize=18;gradientColor=none;gradientDirection=north;fillColor=#FF8000;" parent="-Z5jI8GCRbAPNZXGYlXl-1" vertex="1">
          <mxGeometry x="658" y="790" width="30" height="60" as="geometry"/>
        </mxCell>
        <mxCell id="-Z5jI8GCRbAPNZXGYlXl-13" value="Acteurs Principaux" style="text;html=1;strokeColor=none;fillColor=none;align=center;verticalAlign=middle;whiteSpace=wrap;rounded=0;glass=0;fontSize=18;fontStyle=5" parent="-Z5jI8GCRbAPNZXGYlXl-1" vertex="1">
          <mxGeometry x="58" y="280" width="250" height="20" as="geometry"/>
        </mxCell>
        <mxCell id="-Z5jI8GCRbAPNZXGYlXl-14" value="Acteurs secondaires" style="text;html=1;strokeColor=none;fillColor=none;align=center;verticalAlign=middle;whiteSpace=wrap;rounded=0;glass=0;fontSize=18;fontStyle=5" parent="-Z5jI8GCRbAPNZXGYlXl-1" vertex="1">
          <mxGeometry x="540" y="280" width="250" height="20" as="geometry"/>
        </mxCell>
        <mxCell id="-Z5jI8GCRbAPNZXGYlXl-15" value="" style="shape=flexArrow;endArrow=classic;html=1;strokeColor=#000000;fontSize=18;fillColor=#000000;" parent="-Z5jI8GCRbAPNZXGYlXl-1" edge="1">
          <mxGeometry width="50" height="50" relative="1" as="geometry">
            <mxPoint x="182.17" y="310" as="sourcePoint"/>
            <mxPoint x="182" y="340" as="targetPoint"/>
          </mxGeometry>
        </mxCell>
        <mxCell id="-Z5jI8GCRbAPNZXGYlXl-16" value="" style="shape=flexArrow;endArrow=classic;html=1;strokeColor=#000000;fontSize=18;fillColor=#000000;" parent="-Z5jI8GCRbAPNZXGYlXl-1" edge="1">
          <mxGeometry width="50" height="50" relative="1" as="geometry">
            <mxPoint x="672.3400000000001" y="310" as="sourcePoint"/>
            <mxPoint x="672.1700000000001" y="340" as="targetPoint"/>
          </mxGeometry>
        </mxCell>
        <mxCell id="-Z5jI8GCRbAPNZXGYlXl-17" value="Gestion d&#39;achat" style="shape=folder;fontStyle=1;spacingTop=10;tabWidth=40;tabHeight=14;tabPosition=left;html=1;fillColor=#fff2cc;strokeColor=#d6b656;" parent="-Z5jI8GCRbAPNZXGYlXl-1" vertex="1">
          <mxGeometry x="342.16" y="380" width="150" height="80" as="geometry"/>
        </mxCell>
        <mxCell id="-Z5jI8GCRbAPNZXGYlXl-18" value="Gestion du production" style="shape=folder;fontStyle=1;spacingTop=10;tabWidth=40;tabHeight=14;tabPosition=left;html=1;fillColor=#fff2cc;strokeColor=#d6b656;" parent="-Z5jI8GCRbAPNZXGYlXl-1" vertex="1">
          <mxGeometry x="345" y="500" width="150" height="80" as="geometry"/>
        </mxCell>
        <mxCell id="-Z5jI8GCRbAPNZXGYlXl-19" value="Gestion de la livraison" style="shape=folder;fontStyle=1;spacingTop=10;tabWidth=40;tabHeight=14;tabPosition=left;html=1;fillColor=#fff2cc;strokeColor=#d6b656;" parent="-Z5jI8GCRbAPNZXGYlXl-1" vertex="1">
          <mxGeometry x="345.35" y="620" width="150" height="80" as="geometry"/>
        </mxCell>
        <mxCell id="-Z5jI8GCRbAPNZXGYlXl-20" value="Gestion du stock" style="shape=folder;fontStyle=1;spacingTop=10;tabWidth=40;tabHeight=14;tabPosition=left;html=1;fillColor=#fff2cc;strokeColor=#d6b656;" parent="-Z5jI8GCRbAPNZXGYlXl-1" vertex="1">
          <mxGeometry x="345.35" y="740" width="150" height="80" as="geometry"/>
        </mxCell>
        <mxCell id="-Z5jI8GCRbAPNZXGYlXl-21" value="" style="endArrow=none;html=1;entryX=0;entryY=0;entryDx=0;entryDy=30.5;entryPerimeter=0;" parent="-Z5jI8GCRbAPNZXGYlXl-1" source="-Z5jI8GCRbAPNZXGYlXl-6" target="-Z5jI8GCRbAPNZXGYlXl-17" edge="1">
          <mxGeometry width="50" height="50" relative="1" as="geometry">
            <mxPoint x="208" y="430" as="sourcePoint"/>
            <mxPoint x="108" y="1050" as="targetPoint"/>
          </mxGeometry>
        </mxCell>
        <mxCell id="-Z5jI8GCRbAPNZXGYlXl-22" value="" style="endArrow=none;html=1;entryX=0;entryY=0;entryDx=0;entryDy=47;entryPerimeter=0;" parent="-Z5jI8GCRbAPNZXGYlXl-1" target="-Z5jI8GCRbAPNZXGYlXl-17" edge="1">
          <mxGeometry width="50" height="50" relative="1" as="geometry">
            <mxPoint x="201" y="530" as="sourcePoint"/>
            <mxPoint x="344.99999999999983" y="573.5" as="targetPoint"/>
          </mxGeometry>
        </mxCell>
        <mxCell id="-Z5jI8GCRbAPNZXGYlXl-23" value="" style="endArrow=none;html=1;entryX=0;entryY=0;entryDx=0;entryDy=30.5;entryPerimeter=0;" parent="-Z5jI8GCRbAPNZXGYlXl-1" target="-Z5jI8GCRbAPNZXGYlXl-18" edge="1">
          <mxGeometry width="50" height="50" relative="1" as="geometry">
            <mxPoint x="208" y="650" as="sourcePoint"/>
            <mxPoint x="345.00000000000006" y="604.28" as="targetPoint"/>
          </mxGeometry>
        </mxCell>
        <mxCell id="-Z5jI8GCRbAPNZXGYlXl-24" value="" style="endArrow=none;html=1;entryX=0;entryY=0;entryDx=0;entryDy=63.5;entryPerimeter=0;" parent="-Z5jI8GCRbAPNZXGYlXl-1" target="-Z5jI8GCRbAPNZXGYlXl-18" edge="1">
          <mxGeometry width="50" height="50" relative="1" as="geometry">
            <mxPoint x="208" y="870" as="sourcePoint"/>
            <mxPoint x="355" y="710.0000000000001" as="targetPoint"/>
          </mxGeometry>
        </mxCell>
        <mxCell id="-Z5jI8GCRbAPNZXGYlXl-25" value="" style="endArrow=none;html=1;entryX=0;entryY=0;entryDx=0;entryDy=80;entryPerimeter=0;" parent="-Z5jI8GCRbAPNZXGYlXl-1" target="-Z5jI8GCRbAPNZXGYlXl-17" edge="1">
          <mxGeometry width="50" height="50" relative="1" as="geometry">
            <mxPoint x="198" y="870" as="sourcePoint"/>
            <mxPoint x="327" y="470" as="targetPoint"/>
          </mxGeometry>
        </mxCell>
        <mxCell id="-Z5jI8GCRbAPNZXGYlXl-26" value="" style="endArrow=none;html=1;exitX=0;exitY=0;exitDx=150;exitDy=47;exitPerimeter=0;" parent="-Z5jI8GCRbAPNZXGYlXl-1" source="-Z5jI8GCRbAPNZXGYlXl-17" edge="1">
          <mxGeometry width="50" height="50" relative="1" as="geometry">
            <mxPoint x="518" y="372.3744659462177" as="sourcePoint"/>
            <mxPoint x="648" y="494" as="targetPoint"/>
          </mxGeometry>
        </mxCell>
        <mxCell id="-Z5jI8GCRbAPNZXGYlXl-27" value="" style="endArrow=none;html=1;exitX=0;exitY=0;exitDx=150;exitDy=63.5;exitPerimeter=0;" parent="-Z5jI8GCRbAPNZXGYlXl-1" source="-Z5jI8GCRbAPNZXGYlXl-17" edge="1">
          <mxGeometry width="50" height="50" relative="1" as="geometry">
            <mxPoint x="495.00000000000006" y="587" as="sourcePoint"/>
            <mxPoint x="658" y="790" as="targetPoint"/>
          </mxGeometry>
        </mxCell>
        <mxCell id="-Z5jI8GCRbAPNZXGYlXl-28" value="" style="endArrow=none;html=1;entryX=0;entryY=0;entryDx=0;entryDy=47;entryPerimeter=0;" parent="-Z5jI8GCRbAPNZXGYlXl-1" target="-Z5jI8GCRbAPNZXGYlXl-19" edge="1">
          <mxGeometry width="50" height="50" relative="1" as="geometry">
            <mxPoint x="198" y="780.0044659462177" as="sourcePoint"/>
            <mxPoint x="342.1600000000001" y="807.63" as="targetPoint"/>
          </mxGeometry>
        </mxCell>
        <mxCell id="-Z5jI8GCRbAPNZXGYlXl-29" value="" style="endArrow=none;html=1;entryX=0;entryY=0;entryDx=0;entryDy=30.5;entryPerimeter=0;" parent="-Z5jI8GCRbAPNZXGYlXl-1" target="-Z5jI8GCRbAPNZXGYlXl-19" edge="1">
          <mxGeometry width="50" height="50" relative="1" as="geometry">
            <mxPoint x="198" y="540" as="sourcePoint"/>
            <mxPoint x="355" y="523.5" as="targetPoint"/>
          </mxGeometry>
        </mxCell>
        <mxCell id="-Z5jI8GCRbAPNZXGYlXl-30" value="" style="endArrow=none;html=1;entryX=0;entryY=0;entryDx=0;entryDy=30.5;entryPerimeter=0;" parent="-Z5jI8GCRbAPNZXGYlXl-1" target="-Z5jI8GCRbAPNZXGYlXl-20" edge="1">
          <mxGeometry width="50" height="50" relative="1" as="geometry">
            <mxPoint x="208" y="670" as="sourcePoint"/>
            <mxPoint x="345" y="840.5" as="targetPoint"/>
          </mxGeometry>
        </mxCell>
        <mxCell id="-Z5jI8GCRbAPNZXGYlXl-31" value="" style="endArrow=none;html=1;entryX=0;entryY=0;entryDx=0;entryDy=47;entryPerimeter=0;" parent="-Z5jI8GCRbAPNZXGYlXl-1" target="-Z5jI8GCRbAPNZXGYlXl-20" edge="1">
          <mxGeometry width="50" height="50" relative="1" as="geometry">
            <mxPoint x="208" y="910" as="sourcePoint"/>
            <mxPoint x="355" y="850.5" as="targetPoint"/>
          </mxGeometry>
        </mxCell>
        <mxCell id="-Z5jI8GCRbAPNZXGYlXl-32" value="" style="endArrow=none;html=1;entryX=0;entryY=0;entryDx=0;entryDy=63.5;entryPerimeter=0;" parent="-Z5jI8GCRbAPNZXGYlXl-1" target="-Z5jI8GCRbAPNZXGYlXl-19" edge="1">
          <mxGeometry width="50" height="50" relative="1" as="geometry">
            <mxPoint x="198" y="900" as="sourcePoint"/>
            <mxPoint x="340" y="860" as="targetPoint"/>
          </mxGeometry>
        </mxCell>
        <mxCell id="-Z5jI8GCRbAPNZXGYlXl-33" value="Gestion administrative" style="shape=folder;fontStyle=1;spacingTop=10;tabWidth=40;tabHeight=14;tabPosition=left;html=1;fillColor=#fff2cc;strokeColor=#d6b656;" parent="-Z5jI8GCRbAPNZXGYlXl-1" vertex="1">
          <mxGeometry x="343" y="860" width="150" height="80" as="geometry"/>
        </mxCell>
        <mxCell id="-Z5jI8GCRbAPNZXGYlXl-34" value="" style="endArrow=none;html=1;entryX=0;entryY=0;entryDx=0;entryDy=47;entryPerimeter=0;" parent="-Z5jI8GCRbAPNZXGYlXl-1" target="-Z5jI8GCRbAPNZXGYlXl-33" edge="1">
          <mxGeometry width="50" height="50" relative="1" as="geometry">
            <mxPoint x="208" y="920" as="sourcePoint"/>
            <mxPoint x="343" y="920" as="targetPoint"/>
          </mxGeometry>
        </mxCell>
        <mxCell id="-Z5jI8GCRbAPNZXGYlXl-35" value="" style="endArrow=none;html=1;exitX=0;exitY=0;exitDx=150;exitDy=30.5;exitPerimeter=0;" parent="-Z5jI8GCRbAPNZXGYlXl-1" source="-Z5jI8GCRbAPNZXGYlXl-33" target="-Z5jI8GCRbAPNZXGYlXl-12" edge="1">
          <mxGeometry width="50" height="50" relative="1" as="geometry">
            <mxPoint x="502.1600000000001" y="453.5" as="sourcePoint"/>
            <mxPoint x="675" y="550" as="targetPoint"/>
          </mxGeometry>
        </mxCell>
      </root>
    </mxGraphModel>
  </diagram>
</mxfile>
